<svg viewBox="0 0 730 459">
	<path d="M277.425 240.839c-6.293 0-11.472-5.179-11.472-11.472 0-6.294 5.179-11.472 11.472-11.472 6.294 0 11.473 5.178 11.473 11.472 0 6.293-5.179 11.472-11.473 11.472zm4.629-39.603c0-6.293-5.179-11.472-11.473-11.472-6.293 0-11.472 5.179-11.472 11.472 0 6.294 5.179 11.473 11.472 11.473 6.294 0 11.473-5.179 11.473-11.473zM261.43 181.02c0-6.293-5.178-11.472-11.472-11.472-6.293 0-11.472 5.179-11.472 11.472 0 6.294 5.179 11.473 11.472 11.473 6.294 0 11.472-5.179 11.472-11.473zm-27.512-6.361v-.015c0-6.302-5.186-11.488-11.487-11.488-6.302 0-11.488 5.186-11.488 11.488 0 6.301 5.186 11.487 11.488 11.487h.015c6.293 0 11.472-5.179 11.472-11.472zm-27.211 7.869c0-6.294-5.179-11.472-11.472-11.472-6.294 0-11.473 5.178-11.473 11.472 0 6.293 5.179 11.472 11.473 11.472 6.276-.025 11.427-5.196 11.427-11.472h.045zm-20.08 19.899c0-6.293-5.179-11.472-11.473-11.472-6.293 0-11.472 5.179-11.472 11.472 0 6.294 5.179 11.473 11.472 11.473 6.277-.025 11.428-5.196 11.428-11.473h.045zm-7.432 26.669c0-6.294-5.179-11.473-11.473-11.473-6.293 0-11.472 5.179-11.472 11.473 0 6.293 5.179 11.472 11.472 11.472 6.277-.025 11.427-5.196 11.427-11.472h.046zm7.914 26.819v-.015c0-6.302-5.185-11.488-11.487-11.488-6.302 0-11.488 5.186-11.488 11.488 0 6.284 5.158 11.462 11.443 11.487 6.296 0 11.479-5.176 11.487-11.472h.045zm20.307 20.246c0-6.294-5.179-11.473-11.473-11.473-6.293 0-11.472 5.179-11.472 11.473 0 6.293 5.179 11.472 11.472 11.472 6.277-.025 11.427-5.196 11.427-11.472h.046zm27.814 7.206c0-6.294-5.179-11.473-11.473-11.473-6.293 0-11.472 5.179-11.472 11.473 0 6.293 5.179 11.472 11.472 11.472 6.277-.025 11.427-5.196 11.427-11.472h.046zm28.839-6.196c0-6.294-5.179-11.473-11.473-11.473-6.293 0-11.472 5.179-11.472 11.473 0 6.293 5.179 11.472 11.472 11.472 6.294 0 11.473-5.179 11.473-11.472zm25.809 10.552c0-6.293-5.179-11.472-11.473-11.472-6.293 0-11.472 5.179-11.472 11.472 0 6.294 5.179 11.473 11.472 11.473 6.288-.008 11.458-5.185 11.458-11.473v-.06l.015.06zm-3.392 27.392c0-6.293-5.179-11.472-11.473-11.472-6.293 0-11.472 5.179-11.472 11.472 0 6.294 5.179 11.473 11.472 11.473 6.288-.009 11.458-5.185 11.458-11.473v-.06l.015.06zm-20.819 19.598c0-6.293-5.179-11.472-11.473-11.472-6.293 0-11.472 5.179-11.472 11.472 0 6.288 5.169 11.464 11.457 11.473 6.291-.009 11.464-5.182 11.473-11.473h.015zm-27.679 8.246c0-6.293-5.178-11.472-11.472-11.472-6.293 0-11.472 5.179-11.472 11.472 0 6.294 5.179 11.473 11.472 11.473 6.288-.009 11.457-5.185 11.457-11.473h.015zm-28.04-8.246c0-6.293-5.179-11.472-11.472-11.472-6.294 0-11.472 5.179-11.472 11.472 0 6.288 5.169 11.464 11.457 11.473 6.29-.009 11.464-5.182 11.472-11.473h.015zm79.327-76.13v-.015c0-6.302-5.186-11.488-11.488-11.488s-11.487 5.186-11.487 11.488 5.185 11.487 11.487 11.487c6.291-.008 11.464-5.182 11.473-11.472h.015zm38.216 24.965c0-6.294-5.179-11.473-11.473-11.473-6.293 0-11.472 5.179-11.472 11.473 0 6.293 5.179 11.472 11.472 11.472 6.288-.008 11.457-5.185 11.457-11.472h.016zm0-28.056c0-6.293-5.179-11.472-11.473-11.472-6.293 0-11.472 5.179-11.472 11.472 0 6.294 5.179 11.473 11.472 11.473 6.288-.009 11.457-5.185 11.457-11.473h.016zm0-28.055c0-6.293-5.179-11.472-11.473-11.472-6.293 0-11.472 5.179-11.472 11.472 0 6.294 5.179 11.473 11.472 11.473 6.288-.009 11.457-5.185 11.457-11.473h.016zm98.698 56.111c0-6.294-5.179-11.473-11.473-11.473-6.293 0-11.472 5.179-11.472 11.473 0 6.293 5.179 11.472 11.472 11.472 6.288-.008 11.458-5.185 11.458-11.472h.015zm0-28.056c0-6.293-5.179-11.472-11.473-11.472-6.293 0-11.472 5.179-11.472 11.472 0 6.294 5.179 11.473 11.472 11.473 6.288-.009 11.458-5.185 11.458-11.473h.015zm0-27.708c0-6.294-5.179-11.472-11.473-11.472-6.293 0-11.472 5.178-11.472 11.472s5.179 11.472 11.472 11.472c6.288-.008 11.458-5.184 11.458-11.472h.015zm-4.523-26.337c-.008-6.287-5.184-11.457-11.472-11.457-6.294 0-11.473 5.179-11.473 11.473 0 6.293 5.179 11.472 11.473 11.472 6.268-.041 11.398-5.219 11.382-11.488h.09zm-17.397-21.497c-.008-6.288-5.184-11.457-11.472-11.457-6.294 0-11.473 5.179-11.473 11.472 0 6.294 5.179 11.472 11.473 11.472 6.293 0 11.472-5.178 11.472-11.472v-.015zm-26.472-5.593c0-6.293-5.179-11.472-11.472-11.472-6.294 0-11.473 5.179-11.473 11.472 0 6.288 5.17 11.464 11.457 11.472 6.291-.033 11.444-5.227 11.428-11.517l.06.045zm-25.884 8.774c0-6.294-5.179-11.472-11.473-11.472-6.293 0-11.472 5.178-11.472 11.472 0 6.293 5.179 11.472 11.472 11.472 6.288-.033 11.437-5.229 11.412-11.517l.061.045zm-24.377 16.296c0-6.293-5.179-11.472-11.473-11.472-6.293 0-11.472 5.179-11.472 11.472 0 6.294 5.179 11.473 11.472 11.473 6.288-.033 11.437-5.23 11.412-11.518l.061.045zm0-28.055c0-6.293-5.179-11.472-11.473-11.472-6.293 0-11.472 5.179-11.472 11.472 0 6.294 5.179 11.472 11.472 11.472 6.288-.033 11.437-5.229 11.412-11.517l.061.045zm0-28.055c0-6.294-5.179-11.472-11.473-11.472-6.293 0-11.472 5.178-11.472 11.472s5.179 11.472 11.472 11.472c6.288-.033 11.437-5.229 11.412-11.517l.061.045zm0-28.055c0-6.294-5.179-11.472-11.473-11.472-6.293 0-11.472 5.178-11.472 11.472 0 6.293 5.179 11.472 11.472 11.472 6.288-.033 11.437-5.23 11.412-11.517l.061.045zM572.917 228.01c0-6.293-5.179-11.472-11.473-11.472-6.293 0-11.472 5.179-11.472 11.472 0 6.294 5.179 11.472 11.472 11.472 6.288-.033 11.437-5.229 11.412-11.517l.061.045zm-111.256-.166c0-6.293-5.179-11.472-11.472-11.472-6.294 0-11.473 5.179-11.473 11.472 0 6.294 5.179 11.473 11.473 11.473 6.27-.058 11.391-5.247 11.366-11.518l.106.045zm8.532-27.768v-.015c0-6.302-5.185-11.488-11.487-11.488-6.302 0-11.487 5.186-11.487 11.488 0 6.301 5.185 11.487 11.487 11.487 6.29-.033 11.444-5.227 11.427-11.518l.06.046zm21.106-19.598c-.025-6.285-5.203-11.441-11.487-11.441-6.302 0-11.488 5.185-11.488 11.487 0 6.239 5.083 11.396 11.322 11.486h.06c6.302 0 11.487-5.185 11.487-11.487v-.03l.106-.015zm28.522-5.834c-.008-6.288-5.184-11.458-11.472-11.458-6.293 0-11.472 5.179-11.472 11.473 0 6.27 5.141 11.439 11.412 11.472 6.273-.033 11.419-5.199 11.427-11.472l.105-.015zm27.347 8.321v-.015c0-6.302-5.186-11.487-11.487-11.487-6.302 0-11.488 5.185-11.488 11.487 0 6.302 5.186 11.487 11.488 11.487 6.296 0 11.479-5.176 11.487-11.472zm-78.075 72.151c0-6.294-5.179-11.473-11.472-11.473-6.294 0-11.473 5.179-11.473 11.473 0 6.293 5.179 11.472 11.473 11.472 6.293 0 11.472-5.179 11.472-11.472zm20.05 20.17c0-6.293-5.179-11.472-11.472-11.472-6.294 0-11.472 5.179-11.472 11.472 0 6.294 5.178 11.473 11.472 11.473h.045c6.294 0 11.472-5.179 11.472-11.473h-.045zm27.693 7.885v-.015c0-6.302-5.185-11.488-11.487-11.488-6.302 0-11.487 5.186-11.487 11.488 0 6.301 5.185 11.487 11.487 11.487h.045c6.296 0 11.48-5.176 11.488-11.472h-.046zm27.664-7.372c0-6.294-5.179-11.472-11.473-11.472-6.293 0-11.472 5.178-11.472 11.472 0 6.293 5.179 11.472 11.472 11.472h.046c6.293 0 11.472-5.178 11.472-11.472h-.045zm20.457-20.111c0-6.301-5.186-11.487-11.487-11.487-6.302 0-11.488 5.186-11.488 11.487 0 6.302 5.186 11.488 11.488 11.488h.045c6.302 0 11.487-5.186 11.487-11.487v-.001h-.045zm7.854-55.914c0-6.293-5.179-11.472-11.472-11.472-6.294 0-11.472 5.179-11.472 11.472 0 6.294 5.178 11.472 11.472 11.472h.045c6.294 0 11.472-5.178 11.472-11.472h-.045zm0-28.191c0-6.293-5.179-11.472-11.472-11.472-6.294 0-11.472 5.179-11.472 11.472 0 6.294 5.178 11.473 11.472 11.473h.045c6.294 0 11.472-5.179 11.472-11.473h-.045zm0-28.176c0-6.293-5.179-11.472-11.472-11.472-6.294 0-11.472 5.179-11.472 11.472 0 6.294 5.178 11.473 11.472 11.473h.045c6.294 0 11.472-5.179 11.472-11.472v-.001h-.045zm0-28.19c0-6.294-5.179-11.473-11.472-11.473-6.294 0-11.472 5.179-11.472 11.473 0 6.293 5.178 11.472 11.472 11.472h.045c6.294 0 11.472-5.179 11.472-11.472h-.045zM325.244 319.954v4.191h-.09a7.846 7.846 0 00-1.176-1.884 8.95 8.95 0 00-1.764-1.508 8.705 8.705 0 00-2.231-1.055 9.085 9.085 0 00-2.548-.377 11.035 11.035 0 00-4.688.965 10.087 10.087 0 00-3.437 2.638 11.739 11.739 0 00-2.111 3.905 14.918 14.918 0 00-.739 4.733 18.71 18.71 0 00.619 4.9 10.893 10.893 0 001.944 3.95 9.399 9.399 0 003.422 2.668 11.883 11.883 0 004.99.965 8.07 8.07 0 004.689-1.372 8.677 8.677 0 003.015-3.618h.09v3.286a10.853 10.853 0 01-1.824 6.784 7.166 7.166 0 01-6.03 2.352 11.564 11.564 0 01-2.397-.256 7.465 7.465 0 01-2.141-.829 5.35 5.35 0 01-1.658-1.508 5.452 5.452 0 01-.92-2.276h-3.015a6.749 6.749 0 001.056 3.316 7.714 7.714 0 002.306 2.277 9.75 9.75 0 003.136 1.311c1.169.29 2.368.437 3.573.437a14.016 14.016 0 005.02-.799 8.287 8.287 0 003.316-2.321 9.35 9.35 0 001.855-3.664c.409-1.585.607-3.217.588-4.854V320l-2.85-.046zm-11.427 20.699a7.745 7.745 0 01-2.502-2.171 9.278 9.278 0 01-1.508-3.09 13.559 13.559 0 01-.467-3.573 15.23 15.23 0 01.452-3.694 9.508 9.508 0 011.432-3.226 8.025 8.025 0 012.488-2.291 7.243 7.243 0 013.633-.86 6.943 6.943 0 013.603.89 7.687 7.687 0 012.427 2.352 10.784 10.784 0 011.357 3.256c.281 1.17.423 2.369.422 3.573a13.57 13.57 0 01-.483 3.573 9.642 9.642 0 01-1.507 3.09 8.02 8.02 0 01-2.442 2.171 6.89 6.89 0 01-3.392.814 7.367 7.367 0 01-3.513-.814zm24.302-20.367a10.78 10.78 0 00-3.603 2.774 12.324 12.324 0 00-2.216 4.1 16.97 16.97 0 000 9.905 12.34 12.34 0 002.216 4.07 10.54 10.54 0 003.603 2.759 12.504 12.504 0 009.844 0 10.695 10.695 0 003.603-2.759 12.068 12.068 0 002.201-4.07 16.584 16.584 0 000-9.905 12.073 12.073 0 00-2.201-4.1 10.942 10.942 0 00-3.603-2.774 12.173 12.173 0 00-9.844 0zm8.638 2.352a8.014 8.014 0 012.668 2.352 10.834 10.834 0 011.598 3.301 13.459 13.459 0 010 7.538 11.065 11.065 0 01-1.598 3.316 8.339 8.339 0 01-2.668 2.352 8.207 8.207 0 01-7.432 0 8.353 8.353 0 01-2.669-2.352 10.754 10.754 0 01-1.598-3.316 13.477 13.477 0 010-7.538 10.555 10.555 0 011.598-3.301 8.007 8.007 0 012.669-2.352 8.207 8.207 0 017.432 0zm16.477-2.352a10.79 10.79 0 00-3.603 2.774 12.073 12.073 0 00-2.201 4.1 16.584 16.584 0 000 9.905 12.068 12.068 0 002.201 4.07 10.55 10.55 0 003.603 2.759 12.504 12.504 0 009.844 0 10.54 10.54 0 003.603-2.759 12.34 12.34 0 002.216-4.07 16.97 16.97 0 000-9.905 12.324 12.324 0 00-2.216-4.1 10.78 10.78 0 00-3.603-2.774 12.173 12.173 0 00-9.844 0zm8.638 2.352a8.007 8.007 0 012.669 2.352 10.555 10.555 0 011.598 3.301 13.477 13.477 0 010 7.538 10.754 10.754 0 01-1.598 3.316 8.353 8.353 0 01-2.669 2.352 8.207 8.207 0 01-7.432 0 8.339 8.339 0 01-2.668-2.352 11.065 11.065 0 01-1.598-3.316 13.459 13.459 0 010-7.538c.341-1.183.881-2.3 1.598-3.301a8.014 8.014 0 012.668-2.352 8.207 8.207 0 017.432 0zm32.503-12.06h-3.015v13.929h-.106a7.004 7.004 0 00-1.327-2.306 8.011 8.011 0 00-2.005-1.643 9.552 9.552 0 00-2.457-1.011 9.81 9.81 0 00-2.623-.361 10.543 10.543 0 00-4.839 1.04 9.946 9.946 0 00-3.332 2.94 11.926 11.926 0 00-2.02 4.085 18.713 18.713 0 000 9.874 12.06 12.06 0 002.02 4.071 9.722 9.722 0 003.407 2.773 10.79 10.79 0 004.839 1.011 9.61 9.61 0 002.654-.377 11.26 11.26 0 002.517-1.056 9.694 9.694 0 002.096-1.643 6.484 6.484 0 001.387-2.201h.09v4.568h2.729l-.015-33.693zm-18.995 17.698a10.157 10.157 0 011.417-3.301 7.548 7.548 0 012.472-2.367 6.815 6.815 0 013.633-.92 7.84 7.84 0 013.965.92 7.674 7.674 0 012.638 2.367 9.64 9.64 0 011.508 3.301 15.679 15.679 0 010 7.538 9.842 9.842 0 01-1.508 3.316 7.65 7.65 0 01-6.603 3.287 6.945 6.945 0 01-3.633-.92 7.902 7.902 0 01-2.472-2.367 10.382 10.382 0 01-1.417-3.316 16.192 16.192 0 010-7.538zm34.296 15.995h3.015V330.1a10.26 10.26 0 01.513-3.316 7.376 7.376 0 011.507-2.623 7.122 7.122 0 012.397-1.749 7.82 7.82 0 013.211-.633 6.992 6.992 0 013.015.557c.753.338 1.41.856 1.915 1.508.488.701.822 1.497.98 2.337.2.951.296 1.922.286 2.894v15.196h3.015v-15.648a16.44 16.44 0 00-.588-3.95 6.413 6.413 0 00-4.206-4.794 12.04 12.04 0 00-4.266-.663 8.904 8.904 0 00-4.749 1.326 6.97 6.97 0 00-3.015 3.573h-.09v-13.568h-3.015l.075 33.724zm45.528-24.663h-3.016v4.99h-.09a7.29 7.29 0 00-1.342-2.307 8.055 8.055 0 00-2.005-1.643 9.695 9.695 0 00-2.442-1.01 9.922 9.922 0 00-2.638-.362 10.558 10.558 0 00-4.824 1.04 10.008 10.008 0 00-3.422 2.804 11.922 11.922 0 00-2.02 4.086 18.693 18.693 0 000 9.874 12.046 12.046 0 002.02 4.07 9.764 9.764 0 003.422 2.774 10.681 10.681 0 004.824 1.01c.898 0 1.791-.127 2.653-.377.88-.245 1.726-.6 2.518-1.055a9.34 9.34 0 002.095-1.643 6.524 6.524 0 001.402-2.201h.091v4.613h2.728l.046-24.663zm-18.995 8.759a10.15 10.15 0 011.417-3.302 7.431 7.431 0 012.472-2.367 6.716 6.716 0 013.618-.919 7.92 7.92 0 013.98.919 7.684 7.684 0 012.638 2.367 9.948 9.948 0 011.508 3.302c.592 2.477.592 5.06 0 7.537a10.183 10.183 0 01-1.508 3.317 8.005 8.005 0 01-2.638 2.367 8.1 8.1 0 01-3.98.919 6.859 6.859 0 01-3.618-.919 7.752 7.752 0 01-2.472-2.367 10.387 10.387 0 01-1.417-3.317 15.675 15.675 0 010-7.537zm24.391-12.98h3.016v-4.749H470.6v4.749zm0 28.884h3.016v-24.317H470.6v24.317zm8.443 0h3.015v-12.965a9.335 9.335 0 01.648-3.527 8.37 8.37 0 011.869-2.835 8.242 8.242 0 012.85-1.809 9.045 9.045 0 013.663-.542v-3.015a9.196 9.196 0 00-5.668 1.507 9.378 9.378 0 00-3.513 4.523h-.09v-5.699h-2.729l-.045 24.362zm43.266-33.603h-3.015v13.93h-.091a7.288 7.288 0 00-1.341-2.307 8.091 8.091 0 00-2.005-1.643 9.702 9.702 0 00-2.443-1.01 10.045 10.045 0 00-2.638-.362 10.56 10.56 0 00-4.824 1.04 10.018 10.018 0 00-3.422 2.804 11.922 11.922 0 00-2.02 4.086 18.713 18.713 0 000 9.874 12.046 12.046 0 002.02 4.07 9.773 9.773 0 003.422 2.774 10.684 10.684 0 004.824 1.01c.898 0 1.791-.127 2.653-.377.88-.245 1.726-.6 2.518-1.055a9.369 9.369 0 002.096-1.643 6.255 6.255 0 001.386-2.201h.106v4.613h2.729l.045-33.603zm-18.995 17.699a10.54 10.54 0 011.402-3.302 7.72 7.72 0 012.472-2.367 6.814 6.814 0 013.633-.919 7.917 7.917 0 013.98.919 7.697 7.697 0 012.639 2.367 9.614 9.614 0 011.507 3.302 15.675 15.675 0 010 7.537 9.836 9.836 0 01-1.507 3.317 8.018 8.018 0 01-2.639 2.367 8.098 8.098 0 01-3.98.919 6.953 6.953 0 01-3.633-.919 8.058 8.058 0 01-2.472-2.367 10.723 10.723 0 01-1.402-3.317 15.675 15.675 0 010-7.537zm44.834-8.759h-3.015v4.99h-.091a7.015 7.015 0 00-1.341-2.307 7.798 7.798 0 00-2.005-1.643 9.686 9.686 0 00-2.443-1.01 9.922 9.922 0 00-2.638-.362 10.56 10.56 0 00-4.824 1.04 9.969 9.969 0 00-3.301 2.85 11.925 11.925 0 00-2.035 4.085 19.131 19.131 0 000 9.874 12.04 12.04 0 002.035 4.071 9.704 9.704 0 003.407 2.773 10.725 10.725 0 004.824 1.011 9.792 9.792 0 002.668-.377 11.267 11.267 0 002.518-1.056 9.688 9.688 0 002.095-1.643 6.713 6.713 0 001.387-2.201h.091v4.568h2.728l-.06-24.663zm-18.995 8.759a10.193 10.193 0 011.417-3.302 7.44 7.44 0 012.472-2.367 6.755 6.755 0 013.619-.919 7.916 7.916 0 013.979.919 7.688 7.688 0 012.639 2.367 9.66 9.66 0 011.507 3.302c.593 2.477.593 5.06 0 7.537a9.855 9.855 0 01-1.507 3.317 8.008 8.008 0 01-2.639 2.367 8.096 8.096 0 01-3.979.919 6.911 6.911 0 01-3.619-.919 7.752 7.752 0 01-2.472-2.367 10.41 10.41 0 01-1.417-3.317 15.675 15.675 0 010-7.537zm31.658 15.814l-1.04 2.728c-.226.573-.437 1.086-.663 1.508a4.128 4.128 0 01-.799 1.206 3.535 3.535 0 01-1.131.784 4.303 4.303 0 01-1.643.271 7.4 7.4 0 01-1.01 0l-1.01-.166V353c.277.102.565.167.859.196h1.387a8.914 8.914 0 002.261-.242 3.99 3.99 0 001.674-.844 5.838 5.838 0 001.326-1.628c.456-.819.839-1.677 1.146-2.563l10.553-27.965h-3.015l-7.538 20.714-7.99-20.714h-3.166l9.799 24.227z"/>
</svg>
