<svg viewBox="0 0 730 459">
	<path d="M559.381 228.923v-3.868h2.417c1.45 0 2.901.484 2.901 1.934 0 1.934-1.45 1.934-2.901 1.934h-2.417zm0 1.933h1.934l3.384 5.317h1.934l-3.385-5.317c1.934 0 3.385-.967 3.385-3.383 0-2.418-1.45-3.384-4.351-3.384h-4.833v12.568h1.932v-5.801zm2.417 9.667c5.801 0 11.119-4.35 11.119-10.634 0-6.284-4.835-10.634-11.119-10.634-5.8 0-11.117 4.35-11.117 10.634 0 6.284 4.833 10.634 11.117 10.634m-9.183-10.634c0-5.316 3.867-9.184 8.7-9.184 4.834 0 8.701 3.868 8.701 9.184 0 5.318-3.867 9.185-8.701 9.185-4.833 0-8.7-3.867-8.7-9.185M221.989 271.943c0 17.401 0 22.718 19.335 22.718v3.384h-57.522v-3.384c19.335 0 19.335-5.317 19.335-22.718V170.434h-20.301c-16.919 0-21.752 10.151-23.202 23.202h-3.384l1.45-31.903h109.725l1.45 31.903h-3.383c-.967-12.567-6.284-23.202-23.202-23.202h-20.301v101.509zM317.213 271.943c0 17.401 0 22.235 18.852 22.235v3.384h-56.554v-3.384c18.851 0 18.851-5.317 18.851-22.235v-84.107c0-17.401 0-22.235-18.851-22.235v-3.867h57.037v3.867c-18.852 0-18.852 5.318-18.852 22.235v84.107h-.483zM469.958 288.861c-14.018 7.734-29.969 11.601-46.404 11.601-59.454.484-74.922-43.986-74.922-68.639 0-31.419 23.202-73.472 71.056-73.472 10.15 0 17.401 1.934 24.652 4.35 2.9.967 10.15 3.868 12.568 3.868 4.349 0 4.833-5.318 4.833-8.702h3.868l3.383 43.021h-3.867c-6.768-22.719-20.785-35.769-44.471-35.769-34.319 0-49.786 30.935-49.786 61.871 0 39.153 21.752 66.705 52.203 66.705 8.701 0 19.335-2.417 27.07-7.25v-36.737c0-17.401 0-22.235-18.852-22.235v-3.384h53.171v3.384c-13.051 0-14.984 4.834-14.984 19.335v42.053h.482zM530.863 271.943c0 17.401 0 22.235 18.851 22.235v3.384H493.16v-3.384c18.852 0 18.852-5.317 18.852-22.235v-84.107c0-17.401 0-22.235-18.852-22.235v-3.867h57.038v3.867c-18.851 0-18.851 5.318-18.851 22.235v84.107h-.484z" />
</svg>
