<svg viewBox="0 0 165 45">
	<path d="M64.2 3.5v36.3h3v1h-16v-1h3V4.4H51v-1h13.2zm72.2 29.7zm-7.1 4.6c-.8.8-1.7 1.3-2.9 1.3-1.9 0-2.4-1.7-2.4-4.9V16.1h7v-1h-7V3.2l-10 5.6v6.3h-7.9V3.2l-10 5.6v6.3h-3v1h3V33c0 6.7 4 8.2 9.4 8.2 5.3 0 7.7-2.3 8.8-5.3 1 4.2 4.4 5.3 8.8 5.3 3.4 0 5.5-1 6.8-2.6l1.7-2.3-.9-.8-1.4 2.3zM114.1 33c-.5 3.7-2.4 6.1-4.7 6.1-2.6 0-3.1-1.7-3.1-4.9V16.1h7.9V33z" class="st0"/>
	<path d="M48.6 35.5V24.6c0-7-2.7-10.3-9.1-10.3-7 0-9.4.9-11.5 2.7-.9.9-1.2 1.8-1.2 3 0 2.1 1.5 3.9 3.9 3.9 2.1 0 3.9-1.8 3.9-3.9 0-1.8-.9-3.6-2.7-3.9.9-.3 1.8-.3 2.4-.3 2.7 0 4.2 3 4.2 8.2v10c0 2.7-1.2 4.8-2.1 4.8-1.2 0-2.4-1.2-2.4-5.2 0-2.7 1.2-5.5 2.4-6.1.3-.3.6-.9 0-.9-5.8 0-11.8 2.7-11.8 7.9 0 5.5 4.2 6.7 8.2 6.7 3.6 0 5.2-1.5 6.1-3.9.6 2.4 3 3.9 7.3 3.9 3.3 0 4-.5 6.1-.5.3 0 0-1 0-1-3.1 0-3.7-1.8-3.7-4.2zM14.9 22.1c-3.6-.9-6.1-.9-6.1-3.3 0-1.8 1.5-3.3 4.2-3.3 3.6 0 6.4 2.1 7.9 6.7h1.2l.9-6.1s-5.8-1.5-10.3-1.5c-5.8 0-9.4 3-9.4 8.5 0 4.2 2.7 6.7 9.1 8.8 3 .9 4.8 2.1 4.8 3.9 0 2.7-1.8 4.5-4.8 4.5-1.5 0-3.3-.3-4.2-.9 1.2-.9 2.1-2.4 2.1-3.6 0-2.1-1.8-3.9-3.9-3.9s-3.9 1.8-3.9 3.9c0 3.3 3.9 5.5 10 5.5 7.3 0 11.2-3.3 11.2-9.7s-4.5-8.3-8.8-9.5zm65.6-7.5c9.1 0 13.3 4.2 13.3 13s-3.9 13.6-13.6 13.6c-9.1 0-13.6-4.8-13.6-13.3 0-8.8 5.4-13.3 13.9-13.3zm3 13.6c0-10-.6-12.7-3-12.7-2.7 0-3.6 2.7-3.6 12.7 0 9.1.9 12.1 3.6 12.1 2.4 0 3-3 3-12.1zm59 12.1c-2.7 0-3.6-3-3.6-12.1 0-10 .9-12.7 3.6-12.7 2.4 0 3 2.7 3 12.7.1 9.1-.5 12.1-3 12.1zm21.3-21.8c0-3.9-3.9-4.8-6.1-4.8-2.4 0-4.5.6-6.7 2.7-2.1-1.2-4.8-1.8-8.5-1.8-8.5 0-13.9 4.5-13.9 13.3 0 8.5 4.5 13.3 13.6 13.3 9.7 0 13.6-4.8 13.6-13.6 0-4.5-1.5-8.2-3.3-10 0-.6.6-1.5 1.5-2.1s2.1-.9 4.2-.9c-1.2.6-2.4 2.4-2.4 3.9 0 2.1 1.8 3.9 3.9 3.9 2.2 0 4.1-1.8 4.1-3.9z" class="st0"/>
</svg>
