<?xml version="1.0" encoding="UTF-8" standalone="no"?><svg xmlns="http://www.w3.org/2000/svg" fill-rule="evenodd" stroke-linejoin="round" stroke-miterlimit="2" clip-rule="evenodd" viewBox="0 0 82 146"><path fill="#ff4646" d="M13.5 16.85c6.6-7.42 16.57-12.9 27.19-12.68C51.3 4.4 61.27 9.9 67.87 17.31a37.9 37.9 0 019.27 24.85c-.3 18.59-8.26 25.63-20.99 51.21-4.58 11.26-9.38 23.16-13.93 42.9-.63 2.9-1.25 5.61-1.53 5.38-.3-.24-.9-2.94-1.54-5.85-4.55-19.73-9.34-31.64-13.93-42.9C12.5 67.32 4.52 60.28 4.23 41.7a37.88 37.88 0 019.26-24.85z"/><path fill="#d73534" d="M21.52 94.58C8.42 68.28.47 60.91.17 41.76a42.1 42.1 0 0110.29-27.62C17.8 5.88 28.95-.15 40.78.11 52.54.36 63.6 6.39 70.9 14.61a42.11 42.11 0 0110.3 27.62c-.3 19.15-8.25 26.52-21.35 52.82-4.5 11.05-9.21 22.76-13.67 42.08a55.4 55.4 0 01-1.38 5.5 5.1 5.1 0 01-1.23 1.96 4 4 0 01-2.87 1.14 4 4 0 01-2.59-.93l-.04-.03a4.95 4.95 0 01-1.43-2.16c-.35-1-.92-3.4-1.46-5.9-4.47-19.35-9.17-31.08-13.67-42.13zm-8.03-77.73c6.6-7.42 16.58-12.9 27.2-12.68C51.3 4.4 61.27 9.9 67.87 17.31a37.9 37.9 0 019.27 24.85c-.3 18.59-8.26 25.63-20.99 51.21-4.58 11.26-9.38 23.16-13.93 42.9-.63 2.9-1.25 5.61-1.53 5.38-.3-.24-.9-2.94-1.54-5.85-4.55-19.73-9.34-31.64-13.93-42.9C12.5 67.32 4.52 60.28 4.23 41.7a37.88 37.88 0 019.26-24.85z"/><ellipse cx="40.69" cy="42.38" fill="#590000" rx="14.58" ry="14.67"/></svg>
