<?xml version="1.0" encoding="UTF-8" standalone="no"?><svg xmlns="http://www.w3.org/2000/svg" fill-rule="evenodd" stroke-linejoin="round" stroke-miterlimit="2" clip-rule="evenodd" viewBox="0 0 2134 2134"><circle cx="1066.7" cy="1066.7" r="1066.7" fill="#fff"/><path fill="#231f20" fill-rule="nonzero" d="M1130 861c-127-32-215-32-215-117 0-63 53-116 148-116 127 0 226 74 278 236h43l31-215s-204-53-362-53c-205 0-331 106-331 300 0 148 95 236 320 310 106 31 169 74 169 137 0 95-63 159-169 159-53 0-116-11-148-32 42-32 74-85 74-127 0-74-63-137-137-137s-138 63-138 137c0 116 138 194 353 194 257 0 394-116 394-342 0-225-158-292-310-334z"/></svg>
