<?xml version="1.0" standalone="no"?>
<!DOCTYPE svg PUBLIC "-//W3C//DTD SVG 20010904//EN"
 "http://www.w3.org/TR/2001/REC-SVG-20010904/DTD/svg10.dtd">
<svg version="1.0" xmlns="http://www.w3.org/2000/svg"
 width="512.000000pt" height="512.000000pt" viewBox="0 0 512.000000 512.000000"
 preserveAspectRatio="xMidYMid meet">
<metadata>
Created by potrace 1.11, written by Peter Selinger 2001-2013
</metadata>
<g transform="translate(0.000000,512.000000) scale(0.100000,-0.100000)"
fill="#000000" stroke="none">
<path d="M2410 3684 c-14 -2 -56 -9 -94 -15 -163 -27 -302 -96 -402 -200 -126
-133 -179 -278 -178 -494 0 -356 188 -542 754 -745 199 -71 236 -88 303 -138
92 -70 122 -144 106 -260 -18 -131 -100 -238 -217 -283 -115 -45 -364 -34
-491 22 l-43 19 56 61 c87 94 110 146 111 249 0 100 -23 156 -92 226 -188 188
-503 87 -551 -176 -44 -239 176 -435 551 -494 322 -51 630 -18 847 91 74 37
112 64 171 123 147 145 211 322 211 580 -1 305 -112 510 -355 652 -133 77
-281 128 -596 203 -246 58 -301 101 -301 233 0 162 143 272 354 272 288 0 510
-171 636 -490 l25 -65 53 -3 c28 -2 52 -2 53 0 0 2 17 117 38 256 l38 252 -36
10 c-73 20 -390 79 -507 94 -123 16 -398 28 -444 20z"/>
</g>
</svg>
