<svg viewBox="0 0 730 459">
	<path d="M271.438 271.186c-11.933 14.253-31.545 22.098-50.605 22.098-36.849 0-64.583-25.413-64.583-64.085 0-34.308 23.369-64.307 59.997-64.307 34.087 0 58.23 28.728 58.23 63.091 0 3.315-.276 6.63-.774 9.392h-85.41c1.768 17.292 15.745 29.225 33.313 29.225 13.978 0 25.192-7.9 31.049-14.253l18.783 18.839zm-30.772-57.954c-.994-10.938-10.939-21.656-24.419-21.656-13.756 0-24.916 10.441-26.463 21.601h50.882v.055zm101.985 29.502l33.81-75.301h34.308l-56.682 123.365h-22.872l-56.738-123.365h34.308l33.866 75.301zm132.48-77.842c37.402 0 65.632 28.728 65.632 64.362 0 35.578-28.23 64.085-65.632 64.085s-65.633-28.507-65.633-64.085c.056-35.634 28.287-64.362 65.633-64.362zm0 97.896c19.336 0 32.54-15.027 32.54-33.589 0-18.563-13.204-33.811-32.54-33.811s-32.54 15.248-32.54 33.811c0 18.617 13.259 33.589 32.54 33.589zm78.173-95.299v1.988h-4.972v15.414h-2.154v-15.358h-4.973v-2.044h12.099zm11.436 14.806h-1.27l-6.078-9.669v12.265h-2.154v-17.402h1.215l7.569 11.988 7.679-11.988h1.216v17.402h-2.155v-12.265l-6.022 9.669z"/>
</svg>
