<svg viewBox="0 0 730 459">
	<path d="M154.839 188.482c23.527 0 41.442 17.59 41.442 40.684 0 22.771-17.807 40.686-40.795 40.686-23.851 0-40.903-18.67-40.903-40.362 0-23.094 17.915-41.008 40.256-41.008zm72.845 1.942v69.931h29.787v7.554h-37.557v-77.485h7.77zm81.913 0l36.155 77.485h-8.31l-12.196-25.469H291.79l-12.087 25.469h-8.634l36.694-77.485h1.834zm74.142 0c8.094 0 14.138.54 17.915 1.943 7.879 3.022 12.735 9.928 12.735 18.669 0 7.339-3.453 13.49-8.958 16.944-5.264 3.303-12.8 3.841-22.796 3.882l-9.041.003v36.044h-7.77v-77.485h17.915zm61.946 0v69.931h29.787v7.554h-37.557v-77.485h7.77zm94.541 0v7.554h-36.478v24.282h36.478v7.554h-36.478v30.541h36.478v7.554h-44.249v-77.485h44.249zm26.656 0l18.562 30.217 18.671-30.217h8.958l-23.096 37.555 24.606 39.93h-9.065l-20.074-32.483-20.289 32.483h-9.066l24.714-39.93-22.987-37.555h9.066zm-411.612 5.612c-17.052 0-32.592 13.598-32.592 33.454 0 19.101 15.109 32.807 32.592 32.807 18.132 0 32.917-13.813 32.917-33.238 0-19.641-15.757-33.023-32.917-33.023zm153.356 10.792l-13.382 28.058h26.549l-13.167-28.058zm78.674-8.85h-13.706v26.332c4.425.108 8.85 0 12.843 0 6.691 0 11.872-.431 15.325-3.237 2.698-2.159 4.533-6.152 4.533-10.037 0-3.992-1.943-7.877-4.857-10.144-3.453-2.59-8.094-2.914-14.138-2.914z"/>
</svg>
