<svg viewBox="0 0 603 67.62">
	<path d="m19.89,62.48h57.49c6.65.02,13.15-.34,19.53-1.02v6.14H0c1.11-1.65,1.4-3.36,1.52-5.12V7.52c-.09-1.89-.54-3.42-1.29-4.78h20.9c-.75,1.21-1.16,2.82-1.24,4.83v54.9h0Z" fill="#1d1d1b" fill-rule="evenodd"/><polygon points="91.41 0 105.07 0 80.24 14.36 70.81 14.36 91.41 0 91.41 0" fill="#1d1d1b" fill-rule="evenodd"/><path d="m233.7,67.59l-24.53.03c-.38-1.86-1.19-3.63-2.44-5.32l-11.99-14.06h-65l-12.81,14.88c-1.09,1.41-1.67,2.9-1.72,4.46h-14.65c2.42-1.7,4.02-3.22,5.69-5.12L156.28,6.88c-1.7-1.29-2.7-2.1-4.46-3.5h23.04c1.25,1.82,36.51,41.07,51.93,58.13,1.35,1.5,3.72,4.19,6.91,6.08h0ZM162.57,11.71l27.35,30.64h-55.34l27.98-30.64h0Z" fill="#1d1d1b" fill-rule="evenodd"/><path d="m350.72,67.59h-25.08L251.37,9.76l.09,52.47c.19,2.03.63,3.87,1.53,5.36h-13.2c1.11-1.65,1.4-3.36,1.52-5.12V7.96c-.09-1.89-.54-3.42-1.29-4.78h25.07l75.59,58.65.33-53.26c-.11-2.05-.53-3.84-1.18-5.45l12.6.16c-.88,1.67-1.35,3.48-1.43,5.42l-.28,58.89h0Z" fill="#1d1d1b" fill-rule="evenodd"/><path d="m603,67.59l-24.53.03c-.38-1.86-1.19-3.63-2.44-5.32l-11.99-14.06h-65l-12.81,14.88c-1.09,1.41-1.67,2.9-1.72,4.46h-14.65c2.42-1.7,4.02-3.22,5.69-5.12l50.02-55.59c-1.7-1.29-2.7-2.1-4.46-3.5h23.04c1.25,1.82,36.51,41.07,51.93,58.13,1.35,1.5,3.72,4.19,6.91,6.08h0Zm-71.13-55.89l27.35,30.64h-55.34l27.98-30.64h0Z" fill="#1d1d1b" fill-rule="evenodd"/><polygon points="393.75 62.48 468.07 62.48 467.04 67.59 385.75 67.59 365.86 67.59 444.24 8.56 371.58 8.94 373.32 3.85 472.54 3.49 393.75 62.48 393.75 62.48" fill="#1d1d1b" fill-rule="evenodd"/><path d="m586.73.99c2.5,0,4.65.89,6.44,2.69,1.79,1.79,2.69,3.94,2.69,6.46s-.89,4.67-2.68,6.46c-1.78,1.8-3.94,2.7-6.45,2.7s-4.68-.9-6.48-2.69c-1.79-1.79-2.69-3.95-2.69-6.47s.9-4.67,2.69-6.46c1.8-1.79,3.95-2.69,6.48-2.69h0Zm-.03,16.8c2.1,0,3.89-.75,5.39-2.25,1.5-1.5,2.25-3.3,2.25-5.4s-.75-3.9-2.24-5.39c-1.5-1.49-3.3-2.24-5.4-2.24s-3.9.75-5.39,2.24c-1.49,1.49-2.24,3.29-2.24,5.39s.75,3.9,2.24,5.4c1.49,1.5,3.29,2.25,5.39,2.25h0Zm4.27-2.58h-1.94c-1.22-2.22-2.02-3.47-2.39-3.76-.38-.28-.84-.42-1.4-.42h-.95v4.18h-1.59V5.37h3.41c1.02,0,1.81.07,2.36.22.55.14.99.46,1.33.93.34.48.51.98.51,1.51,0,.67-.24,1.28-.73,1.83-.48.55-1.18.86-2.09.92v.05c.59.14,1.36.96,2.29,2.46l1.19,1.91h0Zm-6.68-5.54h1.94c.89,0,1.51-.13,1.86-.4.35-.26.52-.63.52-1.1s-.17-.82-.51-1.08c-.34-.26-1-.39-2-.39h-1.82v2.96h0Z" fill="#1d1d1b" fill-rule="evenodd"/>
</svg>
