<svg version="1.1" id="Layer_1" xmlns="http://www.w3.org/2000/svg" x="0" y="0" viewBox="0 0 730 459" style="enable-background:new 0 0 730 459" xml:space="preserve">
	<style>.st0{fill-rule:evenodd;clip-rule:evenodd;fill:#1d1d1b}</style><path class="st0" d="M83.4 243.4h57.5c6.6 0 13.1-.3 19.5-1v6.1H63.5c1.1-1.7 1.4-3.4 1.5-5.1v-55c-.1-1.9-.5-3.4-1.3-4.8h20.9c-.7 1.2-1.2 2.8-1.2 4.8v55zM154.9 180.9h13.7l-24.9 14.4h-9.4l20.6-14.4zM297.2 248.5h-24.5c-.4-1.9-1.2-3.6-2.4-5.3l-12-14.1h-65L180.4 244c-1.1 1.4-1.7 2.9-1.7 4.5h-14.6c2.4-1.7 4-3.2 5.7-5.1l50-55.6c-1.7-1.3-2.7-2.1-4.5-3.5h23c1.2 1.8 36.5 41.1 51.9 58.1 1.4 1.5 3.8 4.2 7 6.1zm-71.1-55.9 27.4 30.6h-55.3l27.9-30.6zM414.2 248.5h-25.1l-74.3-57.8.1 52.5c.2 2 .6 3.9 1.5 5.4h-13.2c1.1-1.7 1.4-3.4 1.5-5.1V189c-.1-1.9-.5-3.4-1.3-4.8h25.1l75.6 58.6.3-53.3c-.1-2.1-.5-3.8-1.2-5.5l12.6.2c-.9 1.7-1.4 3.5-1.4 5.4l-.2 58.9zM666.5 248.5H642c-.4-1.9-1.2-3.6-2.4-5.3l-12-14.1h-65L549.7 244c-1.1 1.4-1.7 2.9-1.7 4.5h-14.6c2.4-1.7 4-3.2 5.7-5.1l50-55.6c-1.7-1.3-2.7-2.1-4.5-3.5h23c1.2 1.8 36.5 41.1 51.9 58.1 1.4 1.5 3.8 4.2 7 6.1zm-71.1-55.9 27.4 30.6h-55.3l27.9-30.6zM457.3 243.4h74.3l-1.1 5.1H429.4l78.3-59-72.6.3 1.7-5 99.2-.4-78.7 59zM650.2 181.9c2.5 0 4.6.9 6.4 2.7 1.8 1.8 2.7 3.9 2.7 6.5 0 2.5-.9 4.7-2.7 6.5-1.8 1.8-3.9 2.7-6.5 2.7-2.5 0-4.7-.9-6.5-2.7-1.8-1.8-2.7-4-2.7-6.5s.9-4.7 2.7-6.5c2-1.8 4.1-2.7 6.6-2.7zm0 16.8c2.1 0 3.9-.7 5.4-2.2 1.5-1.5 2.3-3.3 2.3-5.4 0-2.1-.7-3.9-2.2-5.4-1.5-1.5-3.3-2.2-5.4-2.2-2.1 0-3.9.7-5.4 2.2-1.5 1.5-2.2 3.3-2.2 5.4 0 2.1.7 3.9 2.2 5.4 1.4 1.4 3.2 2.2 5.3 2.2zm4.3-2.6h-1.9c-1.2-2.2-2-3.5-2.4-3.8-.4-.3-.8-.4-1.4-.4h-.9v4.2h-1.6v-9.8h3.4c1 0 1.8.1 2.4.2.6.1 1 .5 1.3.9.3.5.5 1 .5 1.5 0 .7-.2 1.3-.7 1.8-.5.6-1.2.9-2.1.9.6.1 1.4 1 2.3 2.5l1.1 2zm-6.7-5.5h1.9c.9 0 1.5-.1 1.9-.4.3-.3.5-.6.5-1.1 0-.5-.2-.8-.5-1.1-.3-.3-1-.4-2-.4h-1.8v3z"/>
</svg>
