<svg version="1.0" xmlns="http://www.w3.org/2000/svg" width="746.667" height="305.333" viewBox="0 0 560 229">
  <path d="M0 61.4V123h33V90h15.8c18.5 0 26.7-1.5 36.8-6.5 9-4.4 17.2-12.9 20.5-21.2 2-4.9 2.4-7.6 2.4-17.4 0-11.3-.1-11.6-3.8-19.1-5.9-12-15.2-19.2-30.2-23.4C69.5.9 62.6.6 34.3.2L0-.2v61.6zm62.6-33.9c8.9 2.6 14.3 11 13 20.1-.8 6.3-3 10-7.8 13.2-4 2.6-4.7 2.7-19.5 3l-15.3.4V26h12.3c8 0 14.1.5 17.3 1.5zM173.5 3.2c-.7 1.8-12.6 29.1-26.4 60.6-13.8 31.5-25.1 57.8-25.1 58.3s6.9.9 16.4.9h16.4l4.9-12.3 4.9-12.2 43-.5 43.1-.5L229.4 49 208.1.5 191.5.2 174.9 0l-1.4 3.2zM208 73.7c0 .2-7.6.3-16.9.3h-16.9l7.5-18.8c4.1-10.3 8-19.8 8.5-21.2.9-2.2 1.9-.1 9.4 18.5 4.6 11.5 8.4 21.1 8.4 21.2zM291.2 61.2l.3 61.3 16.3.3 16.2.2V90h20.6l11.2 16.5 11.3 16.5h17.1c15.2 0 16.9-.2 16.4-1.6-.3-.9-5.7-9.1-11.9-18.3-6.3-9.1-11.7-17.1-12-17.8-.4-.7 1-2.1 3.7-3.7 6.3-3.7 14.1-12.7 16.8-19.4 1.9-4.8 2.3-7.6 2.3-17.3 0-11.3-.1-11.6-3.8-19.1-5.9-12-15.2-19.2-30.2-23.4-5-1.5-11.9-1.8-40.3-2.2L291-.2l.2 61.4zm62.4-33.7c15.6 4.6 18.1 26.5 3.9 33.9-3.4 1.8-6.1 2.1-18.7 2.4l-14.8.3V26h12.3c8 0 14.1.5 17.3 1.5zM440 61.5V123h32v-15.3l.1-15.2 7.2-7.8 7.2-7.7 17.8 23 17.9 23h38l-2.8-3.8c-1.5-2-12.1-15.9-23.4-30.7-11.3-14.9-21.8-28.7-23.4-30.7l-2.7-3.7 21.7-23.8c12-13.1 23.1-25.3 24.8-27.1l3-3.2h-36l-23.9 26c-13.1 14.3-24.2 26-24.7 26-.4 0-.8-11.7-.8-26V0h-32v61.5zM218.3 124.8c-6.8.9-12.3 1.8-12.3 2.2 0 .4 2.5 5.1 5.5 10.6l5.5 10 14.2-1.7c7.9-1 15.3-1.8 16.6-1.9 1.2 0 2.2-.5 2.2-1.1 0-.5-2.5-5.3-5.6-10.5l-5.5-9.4-4.2.1c-2.3.1-9.7.9-16.4 1.7zM275 197.5c0 19.8.1 20.5 2 20.5s2-.7 2-20.5-.1-20.5-2-20.5-2 .7-2 20.5zM294.7 177.6c-1 1-.9 4.2.2 4.8 1.8 1.1 4.2-.6 3.9-2.8-.3-2.1-2.8-3.3-4.1-2zM211 186c0 2.5-.4 3-2.5 3-1.6 0-2.5.6-2.5 1.5s.9 1.5 2.4 1.5c2.4 0 2.4.1 2.8 11.1.3 10.2.5 11.2 2.7 13 3.7 3 13.6 2.1 11.7-1-.5-.7-2-.9-4.1-.5-5.2.9-6.7-2.1-6.3-13.2l.3-8.9 4.3-.3c2.8-.2 4.2-.8 4.2-1.8s-1.2-1.4-4.5-1.4c-4.3 0-4.5-.1-4.5-3 0-2.3-.4-3-2-3s-2 .7-2 3zM176.9 191.9c-5.5 5.5-2.5 11.2 6.9 13.1 7.2 1.5 9.2 2.6 9.2 4.9 0 4.3-7 6.1-13.9 3.7-5.3-1.9-4.8-1.9-5.5 0-.8 2.2 5.1 4.4 11.8 4.4 4.4 0 6-.5 8.5-2.6 6.2-5.2 3-11.3-7.1-13.4-8.5-1.7-11.2-5.2-6.6-8.4 2.7-1.9 6.3-2 10.8-.5 2.6.9 3.4.9 4.1-.2 1.3-2.1-2.8-3.8-9.4-3.9-5.2 0-6.2.3-8.8 2.9zM240.6 203.2l6.6 14.3-1.9 3.5c-1.7 3.3-2.1 3.5-6.7 3.5-5.6 0-7.3 1.9-3.1 3.5 7.9 3 11.5-.3 19-17.5 10.7-24.3 9.8-21.7 7.4-21.3-1.6.2-3.3 3-7.2 12-2.8 6.5-5.4 11.4-5.8 11-.3-.4-2.8-5.8-5.5-12-4.1-9.4-5.2-11.2-7.1-11.2-2.1 0-1.8.9 4.3 14.2zM294 203.5c0 13.8.1 14.5 2 14.5s2-.7 2-14.5-.1-14.5-2-14.5-2 .7-2 14.5zM314 203.5c0 13.8.1 14.5 2 14.5s2-.7 2-9.6c0-5.2.5-10.4 1-11.5 2.6-4.8 11.9-6.1 15.1-2.2.9 1 1.6 5.4 1.9 12.2.4 9 .8 10.6 2.3 10.9 1.5.3 1.7-.7 1.7-11.3 0-11.5 0-11.7-2.9-14.6-2.5-2.5-3.7-2.9-8.4-2.9-3.9 0-6.1.6-8 2-1.4 1.1-2.7 2-3 2-.3 0-.3-.9 0-2 .4-1.5 0-2-1.6-2-2 0-2.1.4-2.1 14.5zM359.3 191.1c-8.9 5.7-7.9 19.1 1.8 24.2 4.3 2.3 11 1.7 15-1.2l2.9-2.2v3.1c0 3.5-1.5 6.9-3.9 8.7-2.2 1.7-10.5 1.6-14.8-.2-4.4-1.9-7.1-.4-3.8 2.1 4.8 3.6 14.1 4.4 19.5 1.6 5.9-2.9 7-6.5 7-23.5 0-14-.1-14.7-2-14.7-1.5 0-2 .7-2 2.7 0 1.6-.4 2.3-.8 1.7-3.2-4.7-13.2-5.9-18.9-2.3zm17 4.9c8.1 9.1-3 21.3-14.2 15.5-7.3-3.7-6-15.7 1.9-18.8 3.5-1.4 9.5.2 12.3 3.3z"/>
</svg>
