<svg xmlns="http://www.w3.org/2000/svg" viewBox="0 0 730 459">
  <path d="M144.67 189.34v49.17h26.34v-26.34h12.61c14.77 0 21.31-1.2 29.37-5.19 7.18-3.51 13.73-10.3 16.36-16.92 1.6-3.91 1.92-6.07 1.92-13.89 0-9.02-.08-9.26-3.03-15.25-4.71-9.58-12.13-15.33-24.11-18.68-3.99-1.2-9.5-1.44-32.09-1.76l-27.38-.32v49.17Zm49.97-27.06c7.1 2.08 11.41 8.78 10.38 16.04-.64 5.03-2.39 7.98-6.23 10.54-3.19 2.08-3.75 2.16-15.57 2.39l-12.21.32v-30.49h9.82c6.39 0 11.25.4 13.81 1.2Zm88.52-19.4c-.56 1.44-10.06 23.23-21.07 48.37-11.02 25.14-20.04 46.14-20.04 46.54s5.51.72 13.09.72h13.09l3.91-9.82 3.91-9.74 34.32-.4 34.4-.4-17-38.71-17-38.71-13.25-.24-13.25-.16-1.12 2.55Zm27.54 56.27c0 .16-6.07.24-13.49.24h-13.49l5.99-15.01c3.27-8.22 6.39-15.8 6.78-16.92.72-1.76 1.52-.08 7.5 14.77 3.67 9.18 6.71 16.84 6.71 16.92Zm66.41-9.98.24 48.93 13.01.24 12.93.16v-26.34h16.44l8.94 13.17 9.02 13.17h13.65c12.13 0 13.49-.16 13.09-1.28-.24-.72-4.55-7.26-9.5-14.61-5.03-7.26-9.34-13.65-9.58-14.21-.32-.56.8-1.68 2.95-2.95 5.03-2.95 11.25-10.14 13.41-15.49 1.52-3.83 1.84-6.07 1.84-13.81 0-9.02-.08-9.26-3.03-15.25-4.71-9.58-12.13-15.33-24.11-18.68-3.99-1.2-9.5-1.44-32.17-1.76l-27.3-.32.16 49.01Zm49.81-26.9c12.45 3.67 14.45 21.15 3.11 27.06-2.71 1.44-4.87 1.68-14.93 1.92l-11.81.24v-30.41h9.82c6.39 0 11.25.4 13.81 1.2Zm68.97 27.14v49.09h25.54v-12.21l.08-12.13 5.75-6.23 5.75-6.15 14.21 18.36 14.29 18.36h30.33l-2.24-3.03c-1.2-1.6-9.66-12.69-18.68-24.51-9.02-11.89-17.4-22.91-18.68-24.51l-2.16-2.95 17.32-19c9.58-10.46 18.44-20.19 19.8-21.63l2.39-2.55h-28.74l-19.08 20.75c-10.46 11.41-19.32 20.75-19.72 20.75-.32 0-.64-9.34-.64-20.75v-20.75h-25.54v49.09Zm-176.97 50.53c-5.43.72-9.82 1.44-9.82 1.76s2 4.07 4.39 8.46l4.39 7.98 11.33-1.36c6.31-.8 12.21-1.44 13.25-1.52.96 0 1.76-.4 1.76-.88 0-.4-2-4.23-4.47-8.38l-4.39-7.5-3.35.08c-1.84.08-7.74.72-13.09 1.36Zm45.26 58.03c0 15.8.08 16.36 1.6 16.36s1.6-.56 1.6-16.36-.08-16.36-1.6-16.36-1.6.56-1.6 16.36Zm15.72-15.88c-.8.8-.72 3.35.16 3.83 1.44.88 3.35-.48 3.11-2.24-.24-1.68-2.24-2.63-3.27-1.6Zm-66.81 6.71c0 2-.32 2.39-2 2.39-1.28 0-2 .48-2 1.2s.72 1.2 1.92 1.2c1.92 0 1.92.08 2.24 8.86.24 8.14.4 8.94 2.16 10.38 2.95 2.39 10.86 1.68 9.34-.8-.4-.56-1.6-.72-3.27-.4-4.15.72-5.35-1.68-5.03-10.54l.24-7.1 3.43-.24c2.24-.16 3.35-.64 3.35-1.44s-.96-1.12-3.59-1.12c-3.43 0-3.59-.08-3.59-2.39 0-1.84-.32-2.39-1.6-2.39s-1.6.56-1.6 2.39Zm-27.22 4.71c-4.39 4.39-2 8.94 5.51 10.46 5.75 1.2 7.34 2.08 7.34 3.91 0 3.43-5.59 4.87-11.1 2.95-4.23-1.52-3.83-1.52-4.39 0-.64 1.76 4.07 3.51 9.42 3.51 3.51 0 4.79-.4 6.78-2.08 4.95-4.15 2.39-9.02-5.67-10.7-6.78-1.36-8.94-4.15-5.27-6.71 2.16-1.52 5.03-1.6 8.62-.4 2.08.72 2.71.72 3.27-.16 1.04-1.68-2.24-3.03-7.5-3.11-4.15 0-4.95.24-7.02 2.31Zm50.85 9.02 5.27 11.41-1.52 2.79c-1.36 2.63-1.68 2.79-5.35 2.79-4.47 0-5.83 1.52-2.47 2.79 6.31 2.39 9.18-.24 15.17-13.97 8.54-19.4 7.82-17.32 5.91-17-1.28.16-2.63 2.39-5.75 9.58-2.24 5.19-4.31 9.1-4.63 8.78-.24-.32-2.24-4.63-4.39-9.58-3.27-7.5-4.15-8.94-5.67-8.94-1.68 0-1.44.72 3.43 11.33Zm42.62.24c0 11.02.08 11.57 1.6 11.57s1.6-.56 1.6-11.57-.08-11.57-1.6-11.57-1.6.56-1.6 11.57Zm15.96 0c0 11.02.08 11.57 1.6 11.57s1.6-.56 1.6-7.66c0-4.15.4-8.3.8-9.18 2.08-3.83 9.5-4.87 12.05-1.76.72.8 1.28 4.31 1.52 9.74.32 7.18.64 8.46 1.84 8.7 1.2.24 1.36-.56 1.36-9.02 0-9.18 0-9.34-2.31-11.65-2-2-2.95-2.31-6.71-2.31-3.11 0-4.87.48-6.39 1.6-1.12.88-2.16 1.6-2.39 1.6s-.24-.72 0-1.6c.32-1.2 0-1.6-1.28-1.6-1.6 0-1.68.32-1.68 11.57Zm36.16-9.9c-7.1 4.55-6.31 15.25 1.44 19.32 3.43 1.84 8.78 1.36 11.97-.96l2.31-1.76v2.47c0 2.79-1.2 5.51-3.11 6.94-1.76 1.36-8.38 1.28-11.81-.16-3.51-1.52-5.67-.32-3.03 1.68 3.83 2.87 11.25 3.51 15.57 1.28 4.71-2.31 5.59-5.19 5.59-18.76 0-11.18-.08-11.73-1.6-11.73-1.2 0-1.6.56-1.6 2.16 0 1.28-.32 1.84-.64 1.36-2.55-3.75-10.54-4.71-15.09-1.84Zm13.57 3.91c6.47 7.26-2.39 17-11.33 12.37-5.83-2.95-4.79-12.53 1.52-15.01 2.79-1.12 7.58.16 9.82 2.63Z"/>
</svg>
