<svg viewBox="0 0 730 459">
	<path d="M165.709 163.372c5.957 1.319 13.353 4.397 17.231 7.196 1.079.759 2.119 1.399 2.319 1.399.159 0 2.038-1.799 4.117-3.998l3.758-3.998h4.158v37.181h-2.678l-2.719-.04-1.359-4.198c-.76-2.319-2.399-6.317-3.678-8.875-4.358-8.836-8.756-13.273-16.951-17.311-6.277-3.039-9.555-3.718-16.751-3.478-19.39.759-28.545 11.474-31.024 36.3-.72 6.997-.32 48.295.52 54.252.959 6.916 1.439 9.235 2.758 13.313 1.999 6.196 3.758 9.435 6.917 12.633 4.757 4.837 10.154 6.836 19.389 7.236 6.517.28 10.195-.36 14.393-2.479 5.277-2.638 7.955-6.116 9.635-12.473.719-2.679.879-4.637 1.039-13.793l.2-10.714-9.715-.08-9.755-.12-.12-2.279-.12-2.318h60.009v4.797h-13.153l-.24 2.279c-1.719 16.511-7.596 26.666-19.99 34.582-7.236 4.637-15.591 7.036-26.106 7.396-12.513.479-22.188-1.719-32.663-7.396-7.796-4.198-17.191-13.713-22.628-22.908-3.838-6.477-6.876-15.632-8.155-24.667-1.04-7.156-.68-19.19.759-25.907 1.999-9.355 4.918-16.591 9.555-23.667 10.355-15.792 23.468-25.067 39.659-28.105 5.038-.92 16.631-.8 21.389.24zM443.362 165.371v4.397l-9.875.12-9.915.08v118.418l16.112-.2c18.15-.16 19.35-.36 25.666-3.439 4.198-2.078 7.277-4.877 10.195-9.315 3.638-5.517 6.037-13.233 6.716-21.708l.28-3.598 2.919-.12c2.758-.12 2.878-.08 2.878.799 0 .52-.44 9.835-.999 20.709-.56 10.875-1 20.19-1 20.67v.919H379.996v-4.797h19.189V169.968h-19.189v-4.797l31.703.08 31.663.12zM303.276 162.932c12.713 2.079 25.107 9.475 34.422 20.589 8.316 9.955 12.953 19.27 15.592 31.463.839 3.918.919 5.358.919 14.153 0 8.675-.12 10.274-.919 13.992-3.159 14.553-9.635 26.107-20.31 36.381-11.553 11.114-23.787 16.392-38.099 16.392-6.197 0-11.035-.76-16.632-2.599-17.35-5.677-34.182-23.787-39.939-43.017-2.478-8.236-2.838-11.034-2.798-21.549 0-8.196.12-9.915.919-13.593 2.079-9.675 5.917-18.71 10.955-25.666 10.674-14.872 23.627-23.828 38.219-26.466 4.038-.76 13.393-.76 17.671-.08zm-15.312 4.637c-14.832 2.679-22.508 12.714-24.307 31.784-.52 5.757-.52 53.811 0 59.568 1.119 11.634 4.678 20.349 10.395 25.507 2.638 2.398 7.516 4.797 11.474 5.757 4.397.999 14.312.999 18.51 0 11.714-2.919 18.63-11.394 21.428-26.267.64-3.358.72-7.076.88-31.583.08-18.47 0-29.384-.28-32.583-1.079-11.473-4.158-19.589-9.395-24.786-3.318-3.279-7.116-5.438-11.714-6.637-3.478-.919-13.593-1.399-16.991-.76zM578.491 165.571c20.948 1.998 35.581 10.354 46.575 26.665 4.278 6.397 6.996 12.874 8.755 21.029 1.839 8.556 2.119 20.829.68 28.705-2.119 11.434-5.757 19.83-12.434 28.705-9.355 12.433-21.268 18.75-40.778 21.668-2.199.32-13.473.52-36.261.64l-33.102.16v-4.837h18.79V169.968h-18.79v-4.797h31.103c18.351 0 32.863.16 35.462.4zm-23.388 4.277v118.458h9.115c14.912 0 22.188-1.6 29.185-6.317 8.555-5.837 13.273-18.031 15.312-39.859.279-2.878.519-10.514.479-16.991 0-19.27-1.879-31.703-5.997-40.339-3.478-7.196-10.674-11.514-22.788-13.672-3.638-.64-7.076-.88-14.992-1.04l-10.314-.24z"/>
</svg>
