<svg xmlns="http://www.w3.org/2000/svg" xml:space="preserve" style="fill-rule:evenodd;clip-rule:evenodd;stroke-linejoin:round;stroke-miterlimit:2" viewBox="0 0 730 459">
	<path d="M.001-.267V164h44v-44h21.066c24.667 0 35.6-2 49.067-8.667 12-5.866 22.933-17.2 27.333-28.266 2.667-6.534 3.2-10.134 3.2-23.2 0-15.067-.133-15.467-5.067-25.467-7.866-16-20.266-25.6-40.266-31.2-6.667-2-15.867-2.4-53.6-2.933L.001-.267Zm83.466 36.934c11.867 3.466 19.067 14.666 17.333 26.8-1.066 8.4-4 13.333-10.4 17.6-5.333 3.466-6.266 3.6-25.999 4l-20.4.533V34.667h16.4c10.666 0 18.799.666 23.066 2Zm147.867-32.4c-.934 2.4-16.8 38.8-35.2 80.8-18.4 42-33.467 77.066-33.467 77.733 0 .666 9.2 1.2 21.867 1.2H206.4l6.534-16.4 6.533-16.267 57.333-.666 57.467-.667L277.467.667l-22.133-.4L233.2 0l-1.866 4.267Zm46 94c0 .266-10.134.4-22.534.4h-22.533l10-25.067c5.467-13.733 10.667-26.4 11.333-28.267 1.2-2.933 2.534-.133 12.534 24.667 6.133 15.333 11.2 28.133 11.2 28.267ZM388.267 81.6l.4 81.733 21.733.4L432 164v-44h27.467l14.933 22 15.067 22h22.8c20.266 0 22.533-.267 21.866-2.134-.4-1.2-7.6-12.133-15.866-24.399-8.4-12.134-15.6-22.8-16-23.734-.534-.933 1.333-2.8 4.933-4.933 8.4-4.933 18.8-16.933 22.4-25.867 2.533-6.4 3.067-10.133 3.067-23.066 0-15.067-.134-15.467-5.067-25.467-7.867-16-20.267-25.6-40.267-31.2-6.666-2-15.866-2.4-53.733-2.933L388-.267l.267 81.867Zm83.2-44.933c20.8 6.133 24.133 35.333 5.2 45.2-4.534 2.4-8.134 2.8-24.934 3.2l-19.733.4v-50.8h16.4c10.667 0 18.8.666 23.067 2ZM586.667 0v164h42.666v-20.4l.134-20.267 9.6-10.4 9.6-10.266 23.733 30.666L696.266 164h50.667l-3.733-5.067c-2-2.667-16.134-21.2-31.2-40.933-15.067-19.867-29.067-38.267-31.2-40.933l-3.6-4.934L706.133 40.4c16-17.467 30.8-33.733 33.067-36.133l4-4.267h-48l-31.867 34.667c-17.466 19.066-32.266 34.666-32.933 34.666-.533 0-1.067-15.6-1.067-34.666V0h-42.666Zm-295.6 166.4c-9.067 1.2-16.4 2.4-16.4 2.933 0 .533 3.333 6.8 7.333 14.133l7.334 13.334 18.933-2.267c10.533-1.333 20.4-2.4 22.133-2.533 1.6 0 2.934-.667 2.934-1.467 0-.667-3.334-7.067-7.467-14L318.534 164l-5.6.133c-3.067.133-12.934 1.2-21.867 2.267Zm75.6 96.933c0 26.4.133 27.333 2.667 27.333 2.533 0 2.666-.933 2.666-27.333S371.867 236 369.334 236c-2.534 0-2.667.933-2.667 27.333Zm26.266-26.533c-1.333 1.333-1.2 5.6.267 6.4 2.4 1.466 5.6-.8 5.2-3.734-.4-2.8-3.733-4.4-5.467-2.666ZM281.334 248c0 3.333-.534 4-3.334 4-2.133 0-3.333.8-3.333 2s1.2 2 3.2 2c3.2 0 3.2.133 3.733 14.8.4 13.6.667 14.933 3.6 17.333 4.934 4 18.134 2.8 15.6-1.333-.666-.934-2.666-1.2-5.466-.667-6.934 1.2-8.934-2.8-8.4-17.6l.4-11.867 5.733-.4c3.733-.266 5.6-1.066 5.6-2.4 0-1.333-1.6-1.866-6-1.866-5.733 0-6-.134-6-4 0-3.067-.533-4-2.667-4-2.133 0-2.666.933-2.666 4Zm-45.467 7.866c-7.333 7.334-3.333 14.934 9.2 17.467 9.6 2 12.267 3.467 12.267 6.533 0 5.734-9.334 8.134-18.534 4.934-7.066-2.534-6.4-2.534-7.333 0-1.067 2.933 6.8 5.866 15.733 5.866 5.867 0 8-.666 11.334-3.466 8.266-6.934 4-15.067-9.467-17.867-11.333-2.267-14.933-6.933-8.8-11.2 3.6-2.533 8.4-2.667 14.4-.667 3.467 1.2 4.533 1.2 5.467-.266 1.733-2.8-3.734-5.067-12.534-5.2-6.933 0-8.266.4-11.733 3.866Zm84.933 15.067L329.6 290l-2.533 4.666c-2.267 4.4-2.8 4.667-8.933 4.667-7.467 0-9.734 2.533-4.134 4.667 10.534 4 15.334-.4 25.334-23.334 14.266-32.4 13.066-28.933 9.866-28.4-2.133.267-4.4 4-9.6 16-3.733 8.667-7.2 15.2-7.733 14.667-.4-.533-3.733-7.733-7.333-16C319.067 254.4 317.6 252 315.067 252c-2.8 0-2.4 1.2 5.733 18.933Zm71.2.4c0 18.4.133 19.333 2.667 19.333 2.533 0 2.666-.933 2.666-19.333S397.2 252 394.667 252c-2.534 0-2.667.933-2.667 19.333Zm26.667 0c0 18.4.133 19.333 2.666 19.333 2.534 0 2.667-.933 2.667-12.8 0-6.933.667-13.866 1.333-15.333 3.467-6.4 15.867-8.133 20.134-2.933 1.2 1.333 2.133 7.2 2.533 16.266.533 12 1.067 14.134 3.067 14.534 2 .4 2.266-.934 2.266-15.067 0-15.333 0-15.6-3.866-19.467-3.334-3.333-4.934-3.866-11.2-3.866-5.2 0-8.134.8-10.667 2.666-1.867 1.467-3.6 2.667-4 2.667-.4 0-.4-1.2 0-2.667.533-2 0-2.666-2.133-2.666-2.667 0-2.8.533-2.8 19.333Zm60.4-16.533c-11.867 7.6-10.534 25.466 2.4 32.266 5.733 3.067 14.666 2.267 20-1.6l3.866-2.933v4.133c0 4.667-2 9.2-5.2 11.6-2.933 2.267-14 2.134-19.733-.266-5.867-2.534-9.467-.534-5.067 2.8 6.4 4.8 18.8 5.866 26 2.133 7.867-3.867 9.334-8.667 9.334-31.333 0-18.667-.134-19.6-2.667-19.6-2 0-2.667.933-2.667 3.6 0 2.133-.533 3.066-1.066 2.266-4.267-6.266-17.6-7.866-25.2-3.066Zm22.666 6.533c10.8 12.133-4 28.4-18.933 20.667-9.733-4.934-8-20.934 2.533-25.067 4.667-1.867 12.667.267 16.4 4.4Z" style="fill-rule:nonzero" transform="matrix(.72523 0 0 .72523 94.15 118.885)"/>
</svg>
