<svg viewBox="0 0 3042 1913">
	<path d="M1754 1228h7l11 28 12-28h7l-15 35v23h-7v-23l-15-35zm-41 0h7v52h24v6h-31v-58zm-46 0h11l15 58h-7l-5-15h-18l-5 15h-7l16-58zm-42 58h-8v-52h-13v-6h36v6h-15v52zm-50-58h6v58h-6v-58zm-97 0h9l20 49v-49h6v58h-9l-18-47v47h-8v-58zm-33 0h8v58h-8v-58zm-88 0h29v6h-22v19h21v6h-21v21h24v6h-31v-58zm-192 0h13l12 46 12-46h12v58h-8v-50l-13 50h-6l-14-50v50h-8v-58zm85 0h9l17 58h-8l-4-15h-18l-5 15h-7l16-58zm47 0h15l11 3 6 6 3 9v22l-3 9-6 7-11 2h-15v-58zm6 52h8l7-2 5-6 1-7v-15l-1-8-5-6-7-2h-8v46zm361-15h15l-7-28-8 28zm-417 0h15l-7-28-8 28zm-85-94h626v7h-626v-7zm608-151l14 4c4 3 21 29 25 38 25 42 56 76 78 76 10 0 16-3 21-5v-3l-12 3c-15 0-44-38-56-56-20-30-26-39-38-53 32-3 50-21 50-41 0-25-20-42-52-42h-13l-26 2-18-2h-9v5h7c11 0 13 9 13 15v125c0 11-2 15-8 21h-15v3l7 2 22-2 22 2 8-2v-3h-9c-6-1-11-6-11-13v-74zm386 60c0 21-5 27-17 27h-5v3l7 2 16-2 15 2 12-2v-3h-6c-4 0-9-1-12-4-3-5-4-9-4-23V965l124 148h6l1-4V973c0-23 5-27 17-27h4v-5h-6l-16 2-15-2h-13v5h7c3 0 9 1 12 4s4 8 4 23v112l-118-138-7-4-18-2h-13v5h5c6 0 8 0 12 4l8 6v124zm-1677 30l9 2 21-2 20 2 14-3v-3l-11 1-4-1c-7-5-10-9-10-17v-69c8 1 13 4 25 4 31 0 54-18 54-44 0-30-24-39-50-39l-36 2-32-2v5h8c12 0 13 4 13 22v121c0 14-3 15-6 18h-15v3zm414-169h-7l-23 2-26-2h-4v5h6c14 0 14 9 14 21v119c0 12 0 21-13 21h-7v5h15l15-2 17 2h12v-5h-5c-16 0-16-13-16-19V967c0-8 1-21 16-21h6v-5zm442 169l9 2 15-3 24 3v-5h-4c-14 0-14-9-14-22l6-117h2l52 136 5-1 53-133 11 106v13c0 11-2 18-14 18h-6v3l6 2 23-3 19 3 11-2v-3h-8c-12 0-13-10-15-22l-10-118c-2-14 3-17 7-21l6-2 6 2v-5h-10c-9 0-22 2-28 17l-48 122-51-131c-2-8-15-8-22-8h-12v3c9 0 20 2 19 18l-8 120c-3 25-12 25-17 25h-7v3zm1112-102c-30-25-31-35-31-43 0-12 10-21 24-21 21 0 32 20 32 21l-2 14h3l3-15-3-15c-18-8-24-9-33-9-24 0-38 18-38 33 0 18 11 27 30 44l12 10c12 9 31 26 31 46 0 21-17 33-37 33-15 0-22-5-27-9-7-5-15-14-15-14l-3-15 2-7h-4l-1 10 5 30c13 0 22 11 42 11 44 0 53-29 53-44 0-18-9-33-29-50l-14-10zm-346-67h-7l-23 2-26-2h-4v5h6c13 0 13 9 13 21v119c0 12 0 21-12 21h-7v5h15l15-2 17 2h12v-5h-5c-16 0-16-13-16-19V967c0-8 1-21 16-21h6v-5zm-532 148c-4 12-10 17-13 18h-11v3l6 2 17-2 18 2 6-2v-3h-12c-3-1-5-4-5-10l5-17 16-44h53l21 56 2 8c0 4-2 6-5 7h-12v3l8 2 19-2 25 2 3-2v-3h-11c-4-4-4-4-7-13l-61-153-1-1h-2l-1 1-58 148zm-397 21l9 2 21-2 19 2 14-3v-3l-11 1-4-1c-6-5-9-9-9-17v-69c7 1 12 4 24 4 32 0 54-18 54-44 0-30-25-39-49-39l-37 2-31-2v5h7c12 0 14 4 14 22v121c0 14-3 15-6 18h-15v3zm-32-169h-6l-24 2-25-2h-6v5h6c15 0 15 9 15 21v119c0 12 0 21-13 21h-6v5h13l16-2 18 2h10v-5h-4c-15 0-15-13-15-19V967c0-8 0-21 15-21h6v-5zm-173 17c0-6 3-9 5-11l9-1h6v-5h-10l-20 2-21-2h-8v5h5c16 0 16 13 16 27v119c0 11-3 15-13 15h-6v5h107c1-6 11-18 14-21 4-8 4-12 4-18h-1c-2 10-8 16-17 21-14 9-27 12-47 12-21 0-23-5-23-12V958zm976 127c0 12 0 16-5 21l-9 1-9-1v4l9 2 21-2 24 2 6-2v-4l-6 1h-7c-3-3-6-7-6-13V958c0-8 4-9 15-9h19c5 0 14 0 14 13v2l-8 9 3 1c10-10 11-19 11-21 0-9-4-12-11-12l-71 2-34-2c-12 21-14 24-15 32h1c8-18 23-24 26-24h24c4 0 8 3 8 7v129zm-1279-59h95v60c0 11-5 21-12 21h-9v3l12 2 18-2 24 2 5-2v-3h-5l-9-1c-1-2-6-8-6-20V965c0-12 5-16 6-18l9-1h5v-5h-5l-24 2-18-2h-12v5h9c7 0 12 9 12 19v55h-95v-53c0-8 0-21 18-21h4v-3l-10-2-21 2-22-2h-7v5h9c4 0 10 4 10 18v125c0 9-1 14-4 17l-8 1h-6v3l9 2 20-2 21 2 9-2v-3h-10c-3 0-12-6-12-18v-63zm935 4l23-62 26 62h-49zm171-74c0-4 0-9 20-9 36 0 42 27 42 38 0 24-21 35-38 35-12 0-18-3-24-6v-58zm-1252-1c0-8 5-9 17-9 23 0 42 12 42 37 0 28-24 35-37 35-11 0-15-3-22-6v-57zm693 0c0-8 4-9 16-9 23 0 43 12 43 37 0 28-24 35-38 35-11 0-15-3-21-6v-57zm1326-21c4 0 9 0 13 3 5 1 8 4 9 9 5 8 5 17 0 25-1 5-4 8-9 11-8 5-18 5-25 0l-11-11c-5-8-5-17 0-25 3-5 6-8 11-9 4-3 7-3 12-3zm-185 46c11-9 17-19 17-27 0-9-6-13-12-13-8 0-12 6-12 10 0 6 4 11 12 11h6c-3 6-5 9-14 16l3 3zm185-42l-11 2c-3 3-6 4-8 9-3 6-3 14 0 21l8 7c7 4 15 4 21 0 5-1 8-4 9-7 4-7 4-15 0-21l-9-9-10-2zm-11 35v-27h17l3 3 1 4-1 5-6 3 1 1 5 6 3 5h-5l-3-5-4-6h-6v11h-5zm5-15h4l6-2 2-3-3-3-5-1h-4v9zM1504 627h-10c0 4-2 3 1 6l11 18c12 0 25-3 31 0 14 10 9 17 15 20 5 4 13 3 13 10-9 0-16 3-22 8-6 6-6 3-3 10 2 6 5 12 14 8 12-6 11 1 15-18 6 1 5 4 5 9 1 9 10 19 18 22l1 16c0 9-3 9-6 12-6 4-4 7-1 13 3 8 3 5-2 11-9-6-3-14-19-18-5 0-13-3-16 1-6 9-10 39 11 35 8-3 9 1 14-5l10-9c0 9-4 15-12 20-7 6-18-2-26 5 0 7 6 33-12 33l3-17c-1-6-1-12-4-16-3-5-8-8-12-7-9 5-43 10-21 28 4 3 9 4 12 9 6 7 7-2 12 6-8 13-24-6-33-6-7 3-11 12-17 18-8 6-18 4-24-3-5-6-9-17-15-21-5-3-9-3-14-2-5 0-6-4-12-4-14-3-8-15-8-26s-9-12-13-20c-6-10 7-19 3-27-5-9-12-10-9-23 10 0 9 22 31 17 6 0 8 0 11-6 2-5 2-9-2-14-4-1-6-4-9-7-15-9-15 6-24 3-1-8 12-9 15-12 8-8-4-14 2-24l13-17c5-3 19-2 26 0 0-9 5-12 9-20 6-6 9-9 20-9-6 12-17 21-14 35s5 9 17 9c14-1 20-3 17-17l-5-13c-3-8-5-18-12-20-11-3-35 9-44 14-24 12-45 42-54 66-14 37-12 62 6 96 28 51 66 63 121 52 21-3 25-6 42-16 32-21 39-36 48-73 3-16 5-38 2-56s-9-25-21-39c-8-9-20-21-31-29-15-10-25-12-42-16zm-38 202c-6-7-7-15-21-9 2 11 5 18 17 20 22 1 15-23 12-33l-18-38c-6-11-11-9-12-23-2-10 0-21 6-29 4-7 13-12 19-16 17-12 23-5 28-6 4-9-19-11-41 6-32 25-18 54 0 83 6 10 19 32 10 45zm-31-42l-3 1-13 2c-1 0-6-3-10 6-5 11 1 18 15 17l15-2c8-4 18-3 8-20-3-6-8-4-12-4zm42 3l21-3 18-8c12-7 21-13 21-28 0-41-24-73-19-82 6-8 12 8 21 8 3-9 0-16-11-19-7-1-18 2-16 14 1 35 34 68 9 97-21 24-41 6-44 21zm-59-12c4 0 9-2 12-5s5-7 3-12c-4-9-15-7-24-9-12-1-29 26 9 26zm57-65c-13 7-18 9-18 29 0 10-3 13 9 21 6 4 14 7 23 9 38 3 39-53 5-62-7-2-13 0-19 3zm19 6l9 3c13 7 9 23 3 33-5 8-6 8-14 9-12 3-29-7-29-18-1-12 5-23 15-27h16zm-13 9c-6 3-9 11-7 15 0 8 9 6 15 6 18-6-2-26-8-21zm78-12c-11 4-11 6-8 18 1 5 1 6 8 6 10 0 10 3 13 2 3-2 9-3 11-6 3-8-6-16-12-19-5-3-6-4-12-1zm-124-15c7-8 10-8 13-14s-6-16-15-18c-26-5-18 26-15 30 7 9 11 8 17 2z"/>
</svg>
